<svg xmlns="http://www.w3.org/2000/svg" width="390" height="420" viewBox="0 0 390 420"><ellipse id="bay-light" cx="152" cy="256" rx="60" ry="14" fill="#6fd0ff" opacity=".45"/><path id="beam-glow" d="M207.9,97.6 L127.3,222.7 L158.9,239.9 L220.2,104.3 Z" fill="#3d8fff" opacity=".55"/><path id="beam-mid" d="M210.9,99.2 L138,223.9 L152.1,231.6 L217.2,102.7 Z" fill="#8fe4ff"/><path id="beam-rings" d="M195.7,122 Q199.6,127.5 206.4,127.8 M182.7,143.7 Q187.5,149.7 195.2,150.5 M169.6,165.3 Q175.4,171.9 184.1,173.2 M156.6,187 Q163.4,194.1 173,195.9 M145,206.3 Q152.6,213.8 163.1,216.1" stroke="#dff8ff" stroke-width="1.1" fill="none" opacity=".75"/><path id="beam-core" d="M212.8,100.3 L143.2,224.5 L148.8,227.5 L215.3,101.6 Z" fill="#ffffff"/><circle id="mouth-flare" cx="213.1" cy="102.7" r="7" fill="#dff8ff"/><ellipse id="impact-fire" cx="146" cy="220" rx="34" ry="24" fill="#ff8a3a" opacity=".85"/><ellipse id="impact-flash" cx="146" cy="224" rx="24" ry="14" fill="#bff2ff"/><ellipse id="impact-core" cx="146" cy="226" rx="11" ry="6" fill="#ffffff"/><g id="sparks" fill="#fff3d6"><circle cx="162" cy="226" r="1.1"/><circle cx="152.6" cy="201" r="1.5"/><circle cx="131.8" cy="223.1" r="0.7"/><circle cx="193.1" cy="220.4" r="0.7"/><circle cx="147" cy="213.9" r="1.4"/><circle cx="107" cy="209.7" r="0.9"/><circle cx="157.9" cy="218" r="1.7"/><circle cx="140.3" cy="208.8" r="1.6"/><circle cx="149.1" cy="206.1" r="1.6"/><circle cx="139.5" cy="189.5" r="1.5"/><circle cx="153" cy="197.7" r="0.8"/><circle cx="101.8" cy="219.8" r="0.8"/><circle cx="122.7" cy="210.8" r="1.5"/><circle cx="128.3" cy="199.5" r="1.2"/><circle cx="124.1" cy="214.1" r="0.8"/><circle cx="145.3" cy="198.6" r="1.1"/><circle cx="113.8" cy="218.6" r="1.5"/><circle cx="156.1" cy="206.3" r="1.2"/><circle cx="158.6" cy="214.7" r="0.7"/><circle cx="155.5" cy="212.2" r="1.7"/><circle cx="182.5" cy="218" r="0.6"/><circle cx="173.6" cy="208.4" r="1"/></g></svg>