<svg xmlns="http://www.w3.org/2000/svg" width="412" height="640" viewBox="0 0 412 640" version="1.1">
	<path d="M 144.359 1.923 C 142.632 2.976, 140.927 4.310, 140.570 4.886 C 140.211 5.468, 138.611 5.672, 136.977 5.345 C 134.805 4.911, 133.867 5.183, 133.408 6.378 C 133.066 7.270, 131.757 8, 130.500 8 C 129.243 8, 127.976 8.619, 127.686 9.376 C 127.362 10.220, 126.222 10.574, 124.740 10.291 C 121.426 9.657, 117 14.897, 117 19.454 C 117 21.270, 116.330 23.311, 115.511 23.991 C 114.692 24.671, 114.250 25.595, 114.528 26.045 C 114.806 26.495, 114.211 27.456, 113.205 28.182 C 107.914 31.997, 103.934 50.487, 107.878 52.925 C 108.636 53.393, 109.007 54.179, 108.703 54.672 C 107.732 56.243, 110.750 69.290, 113.521 75.500 C 116.304 81.735, 116.560 85.193, 115.484 102 C 115.255 105.575, 115.028 111.526, 114.979 115.225 C 114.930 118.924, 114.438 122.229, 113.886 122.570 C 113.335 122.911, 113.154 124.426, 113.486 125.936 C 113.891 127.782, 113.583 129.101, 112.544 129.963 C 111.695 130.668, 111 131.664, 111 132.177 C 111 134.372, 106.822 142.025, 105.128 142.931 C 104.112 143.475, 102.346 146.092, 101.204 148.747 C 100.062 151.403, 98.199 154.415, 97.064 155.442 C 95.929 156.470, 95 157.863, 95 158.540 C 95 159.216, 93.954 160.455, 92.676 161.292 C 85.568 165.950, 72.343 180.769, 68.841 188 C 65.439 195.024, 64.771 197.097, 63.564 204.373 C 62.918 208.271, 62.346 208.623, 60.043 206.539 C 55.642 202.556, 52.987 209.557, 55.772 217.804 C 57.418 222.679, 57.055 223.635, 54.151 222.081 C 46.185 217.817, 40.088 224.886, 43.491 234.440 C 44.893 238.375, 44.891 238.383, 41.370 241.440 C 37.078 245.166, 37.768 248.751, 43.420 252.085 C 46.542 253.927, 46.931 254.664, 47.499 259.811 C 48.653 270.269, 48.835 271.099, 50.552 273.720 C 57.572 284.434, 64.001 287.874, 72.708 285.577 C 77.727 284.253, 84 280.659, 84 279.107 C 84 278.691, 86.407 275.572, 89.348 272.175 C 92.290 268.779, 95.485 264.087, 96.449 261.750 C 97.413 259.412, 98.845 255.994, 99.631 254.154 L 101.059 250.808 103.667 254.650 C 107.386 260.131, 108.679 282.935, 105.666 289.915 C 104.618 292.343, 103.235 297.730, 102.592 301.887 C 101.432 309.390, 101.385 309.473, 96.103 313.510 C 88.164 319.575, 79.551 340.105, 80.143 351.549 C 80.279 354.172, 79.720 356.778, 78.682 358.363 C 77.757 359.775, 77 362.295, 77 363.965 C 77 365.634, 76.543 367, 75.985 367 C 74.403 367, 71.008 373.209, 71.004 376.109 C 71.002 377.544, 69.656 381.369, 68.013 384.609 C 66.262 388.062, 65.020 392.082, 65.013 394.321 C 65.006 396.423, 64.325 398.818, 63.500 399.643 C 61.416 401.727, 61.157 411.232, 63.119 413.628 C 63.685 414.319, 63.681 415.709, 63.110 417.212 C 60.547 423.952, 60.709 437.332, 63.397 440.916 L 65.958 444.332 63.858 447.730 C 61.689 451.240, 61.682 451.683, 63.590 465.230 C 64.072 468.658, 63.844 470.589, 62.762 472.240 C 58.893 478.145, 57.998 492.459, 60.659 505.865 C 62.307 514.167, 61.783 520.323, 58.945 526 C 58.532 526.825, 57.654 529.525, 56.994 532 C 55.427 537.868, 52.360 544.456, 50.462 546.031 C 49.633 546.719, 49.200 548.055, 49.500 549 C 49.800 549.945, 49.360 551.286, 48.523 551.981 C 47.685 552.676, 47 553.887, 47 554.672 C 47 558.725, 36.813 573, 33.921 573 C 32.911 573, 30.829 574.589, 29.293 576.532 C 25.781 580.973, 20.652 584.071, 17.176 583.851 C 11.719 583.505, 2.552 590.425, 0.823 596.197 C -0.575 600.863, -0.012 601.549, 4.052 600.132 C 6.819 599.167, 7.419 599.296, 8.945 601.180 C 10.363 602.931, 11.639 603.295, 15.849 603.146 C 19.184 603.028, 21.886 603.534, 23.475 604.576 C 25.941 606.192, 30.695 606.157, 40.225 604.453 C 42.274 604.087, 45.375 604.284, 47.117 604.891 C 49.466 605.710, 51.304 605.689, 54.231 604.813 C 57.330 603.884, 58.610 603.900, 60.189 604.886 C 62.755 606.489, 68.470 605.567, 75.649 602.392 C 81.443 599.829, 84.509 599.396, 85.500 601 C 87.127 603.632, 97.146 601.464, 98.952 598.089 C 101.856 592.663, 104.758 567.125, 102.998 562.494 C 101.457 558.441, 101.487 552.323, 103.058 550.430 C 103.802 549.534, 104.259 546.844, 104.134 544.101 C 103.928 539.596, 104.131 539.181, 107.779 536.653 C 111.676 533.952, 116 528.921, 116 527.087 C 116 526.541, 118.114 525.040, 120.698 523.751 C 130.633 518.797, 138.098 504.910, 137.505 492.484 C 137.277 487.684, 136.844 483.511, 136.545 483.211 C 136.245 482.912, 136 481.376, 136 479.798 C 136 478.220, 135.226 475.748, 134.279 474.303 C 132.567 471.690, 132.577 471.663, 136.475 468.589 C 138.630 466.890, 142.706 463.193, 145.534 460.374 L 150.675 455.247 150.803 446.491 C 150.873 441.676, 151.196 437.471, 151.520 437.147 C 152.430 436.237, 153.968 439.220, 153.985 441.929 C 154 444.353, 155.102 448.377, 157.563 455 C 158.279 456.925, 159.066 460.652, 159.313 463.283 C 159.676 467.155, 160.452 468.737, 163.381 471.581 C 165.797 473.928, 167 476.003, 167 477.826 C 167 479.327, 167.599 481.443, 168.331 482.527 C 169.063 483.612, 170.438 486.484, 171.386 488.909 C 172.335 491.334, 174.011 494.484, 175.111 495.909 C 181.354 503.996, 183.975 508.057, 184.607 510.623 C 184.997 512.206, 186.033 514.605, 186.908 515.956 C 189.030 519.231, 207.383 538, 208.462 538 C 208.929 538, 210.704 539.060, 212.406 540.356 C 224.319 549.425, 242.730 555.206, 258.896 554.954 C 265.781 554.846, 266.958 555.588, 266.985 560.056 C 266.993 561.461, 268.101 564.104, 269.448 565.929 C 270.794 567.754, 272.169 570.494, 272.504 572.020 C 272.839 573.545, 273.988 575.584, 275.057 576.551 C 277.560 578.817, 277.536 582.205, 275 584.500 C 273.900 585.495, 273 586.773, 273 587.339 C 273 589.529, 268.662 597.189, 267.122 597.719 C 264.934 598.471, 257.226 606.780, 255.274 610.490 C 252.507 615.748, 252.958 624.486, 256 624.566 C 257.375 624.602, 259.831 625.189, 261.458 625.870 C 263.162 626.584, 268.251 627.059, 273.458 626.990 C 278.431 626.925, 283.059 626.901, 283.742 626.936 C 284.425 626.971, 285.775 628.688, 286.742 630.750 C 290.116 637.948, 296.918 639.275, 307.888 634.875 C 309.811 634.104, 311.074 634.445, 314.373 636.628 C 320.424 640.633, 326.685 640.978, 330.779 637.532 C 333.861 634.940, 334.148 634.890, 339.338 636.051 C 344.362 637.175, 346.658 637.084, 354.694 635.442 C 363.157 633.713, 358.433 619.290, 346.937 611.764 C 342.837 609.080, 341.596 607.536, 339.904 603.015 C 338.774 599.995, 337.495 597.069, 337.060 596.512 C 336.626 595.955, 336.027 593.588, 335.730 591.250 C 335.433 588.913, 333.918 584.863, 332.363 582.250 C 329.426 577.315, 327.824 572.683, 325.534 562.500 C 324.307 557.046, 323.088 553.078, 320.926 547.500 C 316.384 535.785, 320.621 526.133, 338.479 507.513 C 344.274 501.470, 349.286 495.673, 349.618 494.630 C 349.949 493.587, 351.966 489.981, 354.100 486.617 C 356.235 483.253, 357.985 479.972, 357.990 479.327 C 357.996 478.681, 359.102 476.844, 360.449 475.243 C 361.796 473.642, 363.852 469.913, 365.018 466.955 C 366.183 463.998, 368.456 459.785, 370.068 457.592 C 371.681 455.400, 373 452.510, 373 451.171 C 373 449.832, 374.008 447.108, 375.240 445.118 C 378.306 440.167, 383.365 428.375, 384.979 422.416 C 385.711 419.712, 386.723 416.964, 387.228 416.310 C 387.733 415.655, 388.780 411.830, 389.554 407.810 C 392.081 394.697, 393.158 389.617, 395.027 382 C 396.039 377.875, 397.355 372.475, 397.950 370 C 398.545 367.525, 399.227 363.025, 399.464 360 C 399.901 354.426, 401.164 347.179, 403.125 339 C 403.718 336.525, 404.562 332.025, 405 329 C 405.438 325.975, 406.681 318.325, 407.763 312 C 408.845 305.675, 409.772 299.600, 409.824 298.500 C 409.875 297.400, 410.319 292.450, 410.810 287.500 C 413.148 263.935, 410.341 216, 406.622 216 C 405.495 216, 401.901 230.802, 401.064 238.894 C 400.546 243.899, 399.856 248.423, 399.532 248.949 C 398.737 250.235, 395.033 268.910, 393.969 277 C 392.547 287.808, 391.441 293.396, 390.309 295.500 C 389.717 296.600, 388.922 299.525, 388.543 302 C 388.164 304.475, 387.249 307.850, 386.510 309.500 C 385.771 311.150, 384.858 314.300, 384.482 316.500 C 384.106 318.700, 382.896 322.429, 381.792 324.787 C 380.689 327.145, 380.012 329.936, 380.287 330.990 C 380.563 332.045, 380.175 333.715, 379.426 334.704 C 378.677 335.692, 378.049 337.486, 378.032 338.691 C 378.014 339.896, 377.550 341.160, 377 341.500 C 376.450 341.840, 376 343.630, 376 345.478 C 376 347.326, 375.367 350.112, 374.593 351.669 C 371.309 358.273, 370.826 359.876, 371.489 361.966 C 371.981 363.517, 371.570 364.829, 370.102 366.392 C 368.865 367.708, 367.755 370.626, 367.378 373.557 C 367.027 376.275, 365.724 380.669, 364.482 383.321 C 363.240 385.972, 362.438 388.957, 362.698 389.954 C 362.959 390.951, 362.009 393.610, 360.586 395.864 C 359.164 398.117, 358 401.108, 358 402.512 C 358 403.915, 357.325 405.322, 356.500 405.638 C 355.675 405.955, 355 407.275, 355 408.572 C 355 409.906, 354.132 411.394, 353 412 C 351.683 412.705, 351 414.094, 351 416.067 C 351 417.807, 350.372 419.304, 349.500 419.638 C 348.675 419.955, 348 420.958, 348 421.866 C 348 422.775, 347.100 424.081, 346 424.768 C 344.900 425.455, 344 426.893, 344 427.964 C 344 430.453, 339.381 437.316, 337.180 438.095 C 336.135 438.466, 335.311 440.166, 335 442.595 C 334.578 445.888, 334.165 446.454, 332.361 446.206 C 329.804 445.854, 325.451 453.695, 326.452 456.849 C 326.890 458.230, 326.479 458.903, 324.954 459.302 C 323.798 459.604, 322.607 460.785, 322.309 461.926 C 322.011 463.067, 321.199 464, 320.506 464 C 319.812 464, 318.707 464.648, 318.049 465.441 C 317.392 466.233, 316.212 466.635, 315.427 466.334 C 314.491 465.975, 314 466.458, 314 467.738 C 314 472.730, 309.553 473.994, 304.368 470.475 C 302.321 469.086, 299.601 467.687, 298.323 467.366 C 296.003 466.784, 295.238 465.463, 296.856 464.833 C 297.327 464.650, 299.372 461.358, 301.399 457.518 C 305.546 449.666, 305.620 446.489, 301.983 432.602 C 300.990 428.808, 300.396 425.130, 300.665 424.430 C 300.934 423.729, 300.638 422.191, 300.006 421.012 C 299.375 419.832, 298.474 416.759, 298.003 414.183 C 295.135 398.473, 294.383 393.115, 294.707 390.696 C 295.164 387.289, 291.146 380.256, 285.317 374.259 C 282.943 371.815, 281.005 369.070, 281.011 368.158 C 281.025 366.031, 283.537 357.733, 284.989 355.021 C 285.765 353.570, 285.802 351.954, 285.111 349.717 C 284.563 347.948, 283.134 342.900, 281.933 338.500 C 277.381 321.812, 263.997 307, 253.469 307 C 249.667 307, 248.889 304.944, 251.116 300.784 C 253.585 296.170, 251.318 284.305, 246.097 274.523 C 241.255 265.449, 242.629 261.176, 249.918 262.634 C 253.308 263.312, 253.769 262.399, 251.532 259.441 C 248.431 255.342, 250.168 251.917, 255.636 251.347 C 264.994 250.371, 277 243.199, 277 238.584 C 277 237.847, 277.701 236.663, 278.558 235.952 C 287.336 228.666, 284.075 205.944, 273.750 202.456 C 272.788 202.131, 272 200.952, 272 199.837 C 272 198.721, 271.362 195.489, 270.582 192.654 C 269.802 189.819, 268.880 185.806, 268.534 183.735 C 268.132 181.336, 266.652 178.718, 264.452 176.519 C 262.553 174.620, 261 172.468, 261 171.736 C 261 169.920, 253.782 163, 251.888 163 C 251.048 163, 248.892 161.689, 247.098 160.087 C 245.303 158.485, 242.410 156.640, 240.668 155.986 C 234.639 153.725, 233.150 152.734, 232.606 150.622 C 232.092 148.627, 224.654 140, 223.448 140 C 221.666 140, 216 134.186, 216 132.357 C 216 131.178, 215.278 129.937, 214.396 129.599 C 213.514 129.260, 213.031 128.361, 213.323 127.600 C 213.636 126.786, 212.239 124.920, 209.927 123.062 C 207.767 121.326, 206 119.117, 206 118.153 C 206 117.189, 205.577 115.973, 205.060 115.450 C 204.543 114.928, 203.899 113.271, 203.629 111.768 C 203.360 110.266, 202.433 108.028, 201.570 106.796 C 200.706 105.563, 200 103.625, 200 102.489 C 200 101.353, 199.170 98.794, 198.155 96.804 C 197.140 94.813, 196.273 91.905, 196.227 90.342 C 196.182 88.779, 195.440 86.150, 194.579 84.500 C 193.717 82.850, 193.010 80.660, 193.006 79.634 C 193.003 78.608, 192.236 75.618, 191.303 72.990 C 189.818 68.808, 189.756 67.229, 190.811 60.355 C 192.418 49.882, 192.497 43.137, 191.057 39.515 C 188.325 32.642, 186.472 29.352, 183.922 26.847 C 181.289 24.260, 181.101 17.882, 183.541 13.933 C 184.425 12.503, 177.821 12.893, 175.036 14.435 C 172.734 15.710, 172.336 15.556, 168.984 12.103 C 165.026 8.025, 157.374 4, 153.578 4 C 152.013 4, 150.907 3.281, 150.500 2 C 149.708 -0.496, 148.353 -0.513, 144.359 1.923" stroke="none" fill="black" fill-rule="evenodd"/>
</svg>